@startuml "Classes"

top to bottom direction
class nova <<abstract>> {
  - number timerHandler
  + Date horario
  + boolean absoluto
  + string descricao
  + cancelar()
}
class Alerta <<abstract>> {
  - number timerHandler
  + Date horario
  + boolean absoluto
  + string descricao
  + cancelar()
  + ajustar(hor)
  constructor(desc, hor)
}

note left of Alerta : Alerta programado.\n\nPossui uma descrição que é\nexibida com a conclusão do\ntimer, na forma de um alerta.

class AlertaRelativo {
  constructor(desc, horExpr)
  + ajustar(horExpr)
  + string: getTempoRestante()
}


class fim <<abstract>> {
  - number timerHandler
  + Date horario
  + boolean absoluto
  + string descricao
  + cancelar()
}

Alerta <|-- AlertaRelativo
Alerta <|-- AlertaAbsoluto

@enduml
